<?xml version="1.0" encoding="UTF-8"?>
<svg width="18px" height="18px" viewBox="0 0 18 18" version="1.1" xmlns="http://www.w3.org/2000/svg" xmlns:xlink="http://www.w3.org/1999/xlink">
    <title>24651858-F897-44B6-A483-021AC18429E2</title>
    <g id="Page-1" stroke="none" stroke-width="1" fill="none" fill-rule="evenodd">
        <g id="8_(L)커뮤니티_커뮤니티-댓글-상세" transform="translate(-314.000000, -457.000000)" fill="#BDBDBD">
            <g id="community_reply" transform="translate(18.000000, 449.000000)">
                <g id="Group-3">
                    <g id="ic_delete_g" transform="translate(296.000000, 8.000000)">
                        <g id="Trash" transform="translate(1.000000, 0.000000)">
                            <path d="M15.088,2.96 L11.656,2.96 C11.0638299,1.39276269 9.56338001,0.355713454 7.888,0.355713454 C6.21261999,0.355713454 4.71217007,1.39276269 4.12,2.96 L0.688,2.96 C0.35662915,2.96 0.088,3.22862915 0.088,3.56 C0.088,3.89137085 0.35662915,4.16 0.688,4.16 L1.088,4.16 L1.088,16.56 C1.088,17.2227417 1.6252583,17.76 2.288,17.76 L13.088,17.76 C13.7507417,17.76 14.288,17.2227417 14.288,16.56 L14.288,4.16 L15.088,4.16 C15.4193708,4.16 15.688,3.89137085 15.688,3.56 C15.688,3.22862915 15.4193708,2.96 15.088,2.96 L15.088,2.96 Z M7.888,1.56 C8.98,1.56 9.928,1.96 10.396,2.96 L5.38,2.96 C5.848,1.956 6.796,1.56 7.888,1.56 Z M13.088,16.56 L11.488,16.56 L11.488,9.76 C11.488,9.42862915 11.2193708,9.16 10.888,9.16 C10.5566292,9.16 10.288,9.42862915 10.288,9.76 L10.288,16.56 L8.288,16.56 L8.288,7.36 C8.288,7.02862915 8.01937085,6.76 7.688,6.76 C7.35662915,6.76 7.088,7.02862915 7.088,7.36 L7.088,16.56 L5.088,16.56 L5.088,9.76 C5.088,9.42862915 4.81937085,9.16 4.488,9.16 C4.15662915,9.16 3.888,9.42862915 3.888,9.76 L3.888,16.56 L2.288,16.56 L2.288,4.16 L13.088,4.16 L13.088,16.56 Z" id="Shape"></path>
                        </g>
                    </g>
                </g>
            </g>
        </g>
    </g>
</svg>