<?xml version="1.0" encoding="UTF-8"?>
<svg width="21px" height="21px" viewBox="0 0 21 21" version="1.1" xmlns="http://www.w3.org/2000/svg" xmlns:xlink="http://www.w3.org/1999/xlink">
    <title>6D1D90A0-7B75-4E74-97A3-D866CAF293B8</title>
    <g id="Page-1" stroke="none" stroke-width="1" fill="none" fill-rule="evenodd">
        <g id="8_(L)커뮤니티_커뮤니티-글-작성" transform="translate(-18.000000, -680.000000)" fill="#BDBDBD">
            <g id="ic_image" transform="translate(18.000000, 680.000000)">
                <g id="Image" transform="translate(1.166667, 0.000000)">
                    <path d="M17.6306667,4.82533333 L13.636,0.849333333 C13.385179,0.444342418 12.9456364,0.194682197 12.4693333,0.186666667 L1.736,0.186666667 C0.96280135,0.186666667 0.336,0.813468017 0.336,1.58666667 L0.336,19.32 C0.336,20.0931986 0.96280135,20.72 1.736,20.72 L16.6693333,20.72 C17.0549831,20.7754198 17.4442,20.6458605 17.7196969,20.3703636 C17.9951938,20.0948667 18.1247532,19.7056498 18.0693333,19.32 L18.0693333,6.25333333 C18.1053067,5.73939893 17.9489601,5.2304407 17.6306667,4.82533333 L17.6306667,4.82533333 Z M13.8693333,3.04266667 L15.68,4.85333333 L13.8693333,4.85333333 L13.8693333,3.04266667 Z M12.4226667,1.58666667 L12.4226667,1.61466667 L12.4506667,1.64266667 L12.4506667,6.25333333 L16.6506667,6.25333333 L16.6506667,11.2466667 L14.196,9.84666667 C13.9097927,9.6831433 13.5482817,9.74145152 13.328,9.98666667 L9.44066667,14.28 L6.174,13.0666667 C5.91741221,12.972491 5.62947871,13.0362737 5.43666667,13.23 L1.73133333,16.9353333 L1.73133333,1.58666667 L12.4226667,1.58666667 Z M1.736,19.32 L1.736,18.9 L1.764,18.9 L6.11333333,14.5506667 L9.422,15.7733333 C9.68989661,15.8720604 9.99090591,15.7981931 10.1826667,15.5866667 L14.0093333,11.3586667 L16.6693333,12.88 L16.6693333,19.32 L1.736,19.32 Z" id="Shape"></path>
                    <path d="M5.94066667,9.98666667 C7.22933108,9.98666667 8.274,8.94199775 8.274,7.65333333 C8.274,6.36466892 7.22933108,5.32 5.94066667,5.32 C4.65200225,5.32 3.60733333,6.36466892 3.60733333,7.65333333 C3.60733333,8.94199775 4.65200225,9.98666667 5.94066667,9.98666667 L5.94066667,9.98666667 Z M5.94066667,6.72 C6.45613243,6.72 6.874,7.13786757 6.874,7.65333333 C6.874,8.1687991 6.45613243,8.58666667 5.94066667,8.58666667 C5.4252009,8.58666667 5.00733333,8.1687991 5.00733333,7.65333333 C5.00733333,7.13786757 5.4252009,6.72 5.94066667,6.72 Z" id="Shape"></path>
                </g>
            </g>
        </g>
    </g>
</svg>