<?xml version="1.0" encoding="UTF-8"?>
<svg width="15px" height="15px" viewBox="0 0 15 15" version="1.1" xmlns="http://www.w3.org/2000/svg" xmlns:xlink="http://www.w3.org/1999/xlink">
    <title>A4271783-D714-4C72-B2C8-A4C55FA1EDA4</title>
    <g id="Page-1" stroke="none" stroke-width="1" fill="none" fill-rule="evenodd">
        <g id="8_(L)게임상세_커뮤니티-리스트----" transform="translate(-253.000000, -299.000000)" fill="#3C5AFE">
            <g id="community/pic" transform="translate(18.000000, 243.000000)">
                <g id="Group">
                    <g id="Group-4" transform="translate(235.000000, 55.000000)">
                        <g id="ic_like" transform="translate(0.000000, 1.000000)">
                            <g id="Like-3" transform="translate(3.333333, 3.333333)">
                                <path d="M8.4796748,3.7398374 C8.4796748,3.17857241 8.02467962,2.72357724 7.46341463,2.72357724 L6.04065041,2.72357724 L6.04065041,1.30081301 C6.04065041,0.691056911 5.69105691,0.081300813 5.02439024,0.081300813 C4.35772358,0.081300813 4.00813008,0.691056911 4.00813008,1.30081301 L4.00813008,1.86178862 L3.27439024,2.59552846 L2.33536585,2.9004065 C2.24154384,2.67202636 2.0192583,2.52276603 1.77235772,2.52235772 L0.756097561,2.52235772 C0.419338567,2.52235772 0.146341463,2.79535483 0.146341463,3.13211382 L0.146341463,7.60365854 C0.146341463,7.94041753 0.419338567,8.21341463 0.756097561,8.21341463 L1.77235772,8.21341463 C2.10911672,8.21341463 2.38211382,7.94041753 2.38211382,7.60365854 L2.38211382,7.52439024 L3.26422764,8.11178862 C3.36424153,8.17813037 3.48160934,8.21348212 3.60162602,8.21341463 L7.46341463,8.21341463 C8.02467962,8.21341463 8.4796748,7.75841946 8.4796748,7.19715447 L8.4796748,6.99390244 C8.37075236,6.80524325 8.37075236,6.57280553 8.4796748,6.38414634 L8.4796748,5.77439024 C8.37075236,5.58573105 8.37075236,5.35329334 8.4796748,5.16463415 L8.4796748,4.55487805 C8.37075236,4.36621886 8.37075236,4.13378114 8.4796748,3.94512195 L8.4796748,3.7398374 Z M1.77235772,7.60162602 L0.756097561,7.60162602 L0.756097561,3.1300813 L1.77235772,3.1300813 L1.77235772,7.60162602 Z M7.8699187,3.94308943 L7.56504065,3.94308943 C7.39666115,3.94308943 7.2601626,4.07958798 7.2601626,4.24796748 C7.2601626,4.41634698 7.39666115,4.55284553 7.56504065,4.55284553 L7.8699187,4.55284553 L7.8699187,5.16260163 L7.56504065,5.16260163 C7.39666115,5.16260163 7.2601626,5.29910018 7.2601626,5.46747967 C7.2601626,5.63585917 7.39666115,5.77235772 7.56504065,5.77235772 L7.8699187,5.77235772 L7.8699187,6.38211382 L7.56504065,6.38211382 C7.39666115,6.38211382 7.2601626,6.51861237 7.2601626,6.68699187 C7.2601626,6.85537137 7.39666115,6.99186992 7.56504065,6.99186992 L7.8699187,6.99186992 L7.8699187,7.19512195 C7.8699187,7.41962795 7.68792063,7.60162602 7.46341463,7.60162602 L3.60162602,7.60162602 L2.38211382,6.78861789 L2.38211382,3.52439024 L3.60162602,3.1300813 L4.61788618,2.11382114 L4.61788618,1.30081301 C4.61788618,1.30081301 4.61788618,0.691056911 5.02439024,0.691056911 C5.43089431,0.691056911 5.43089431,1.30081301 5.43089431,1.30081301 L5.43089431,3.33333333 L7.46341463,3.33333333 C7.68792063,3.33333333 7.8699187,3.5153314 7.8699187,3.7398374 L7.8699187,3.94308943 Z" id="Shape"></path>
                            </g>
                        </g>
                    </g>
                </g>
            </g>
        </g>
    </g>
</svg>