<?xml version="1.0" encoding="UTF-8"?>
<svg width="15px" height="15px" viewBox="0 0 15 15" version="1.1" xmlns="http://www.w3.org/2000/svg" xmlns:xlink="http://www.w3.org/1999/xlink">
    <title>2F10495F-5BF8-45DC-9AC1-D4C3BBF12239</title>
    <g id="Page-1" stroke="none" stroke-width="1" fill="none" fill-rule="evenodd">
        <g id="8_(L)게임상세_커뮤니티-리스트----" transform="translate(-301.000000, -299.000000)" fill="#8E23AA">
            <g id="community/pic" transform="translate(18.000000, 243.000000)">
                <g id="Group">
                    <g id="Group-2" transform="translate(283.000000, 55.000000)">
                        <g id="ic_reply" transform="translate(0.000000, 1.000000)">
                            <g id="Слой_151" transform="translate(3.333333, 3.333333)">
                                <path d="M7.2601626,0.691056911 C7.93368059,0.691056911 8.4796748,1.23705112 8.4796748,1.91056911 L8.4796748,5.16260163 C8.4796748,5.83611961 7.93368059,6.38211382 7.2601626,6.38211382 L3.55081301,6.38211382 L2.17886179,7.60162602 L2.17886179,6.38211382 L1.97560976,6.38211382 C1.30209177,6.38211382 0.756097561,5.83611961 0.756097561,5.16260163 L0.756097561,1.91056911 C0.756097561,1.23705112 1.30209177,0.691056911 1.97560976,0.691056911 L7.2601626,0.691056911 L7.2601626,0.691056911 Z M7.2601626,0.081300813 L1.97560976,0.081300813 C0.965332775,0.081300813 0.146341463,0.900292124 0.146341463,1.91056911 L0.146341463,5.16260163 C0.145863645,6.0166458 0.736415839,6.75736698 1.56910569,6.94715447 L1.56910569,7.60162602 C1.56879015,7.84222894 1.70998956,8.0605214 1.92956476,8.15889109 C2.14913996,8.25726078 2.40603106,8.21731286 2.58536585,8.05691057 L3.78455285,6.99186992 L7.2601626,6.99186992 C8.27043958,6.99186992 9.08943089,6.17287861 9.08943089,5.16260163 L9.08943089,1.91056911 C9.08943089,0.900292124 8.27043958,0.081300813 7.2601626,0.081300813 L7.2601626,0.081300813 Z" id="Shape"></path>
                                <circle id="Oval" cx="4.61788618" cy="3.53658537" r="1"></circle>
                                <circle id="Oval" cx="6.6504065" cy="3.53658537" r="1"></circle>
                                <circle id="Oval" cx="2.6097561" cy="3.53658537" r="1"></circle>
                            </g>
                        </g>
                    </g>
                </g>
            </g>
        </g>
    </g>
</svg>