<svg xmlns="http://www.w3.org/2000/svg" width="15" height="15" viewBox="0 0 15 15">
    <g fill="#8E23AA" fill-rule="evenodd" transform="translate(0 1.667)">
        <path d="M11.269 1c1.067 0 1.932.895 1.932 2v5.333c0 1.104-.865 2-1.932 2H5.393l-2.173 2v-2h-.322c-1.067 0-1.932-.896-1.932-2V3c0-1.105.865-2 1.932-2h8.37zm0-1H2.898C1.298 0 0 1.343 0 3v5.333c0 1.4.935 2.615 2.254 2.926v1.073c0 .395.223.753.57.914.349.161.756.096 1.04-.167l1.9-1.747h5.505c1.6 0 2.898-1.343 2.898-3V3c0-1.657-1.298-3-2.898-3z"/>
        <circle cx="7.208" cy="5.542" r="1"/>
        <circle cx="10.542" cy="5.542" r="1"/>
        <circle cx="3.875" cy="5.542" r="1"/>
    </g>
</svg>
