<?xml version="1.0" encoding="UTF-8"?>
<svg width="21px" height="21px" viewBox="0 0 21 21" version="1.1" xmlns="http://www.w3.org/2000/svg" xmlns:xlink="http://www.w3.org/1999/xlink">
    <title>9CAAB141-7E1B-4FE7-AA93-7DDCA5B02041</title>
    <g id="Page-1" stroke="none" stroke-width="1" fill="none" fill-rule="evenodd">
        <g id="8_(L)게임상세_커뮤니티-리스트----" transform="translate(-319.000000, -197.000000)" fill="#000000">
            <g id="ic_write" transform="translate(319.000000, 197.000000)">
                <g id="Edit-2" transform="translate(1.166667, 0.000000)">
                    <path d="M15.736,19.32 L1.736,19.32 L1.736,1.58666667 L9.66933333,1.58666667 L9.66933333,0.186666667 L1.736,0.186666667 C0.96280135,0.186666667 0.336,0.813468017 0.336,1.58666667 L0.336,19.32 C0.336,20.0931986 0.96280135,20.72 1.736,20.72 L15.736,20.72 C16.5091986,20.72 17.136,20.0931986 17.136,19.32 L17.136,10.4533333 L15.736,10.4533333 L15.736,19.32 Z" id="Shape"></path>
                    <path d="M18.1253333,1.932 L17.136,0.942666667 C16.5894072,0.396753694 15.7039261,0.396753694 15.1573333,0.942666667 C15.1573333,0.942666667 7.378,8.71266667 7.26133333,9.184 L6.91133333,10.584 C6.79152271,11.0614136 6.93122628,11.5666727 7.27927679,11.9147232 C7.62732731,12.2627737 8.13258641,12.4024773 8.61,12.2826667 L10.01,11.9326667 C10.4766667,11.8113333 18.1253333,3.91533333 18.1253333,3.91533333 C18.6712463,3.36874058 18.6712463,2.48325942 18.1253333,1.93666667 L18.1253333,1.932 Z M10.5653333,9.492 L9.60866667,8.53533333 L9.576,8.50733333 L16.1466667,1.93666667 L17.136,2.926 L10.5653333,9.492 Z" id="Shape"></path>
                </g>
            </g>
        </g>
    </g>
</svg>