<?xml version="1.0" encoding="UTF-8"?>
<svg width="18px" height="18px" viewBox="0 0 18 18" version="1.1" xmlns="http://www.w3.org/2000/svg" xmlns:xlink="http://www.w3.org/1999/xlink">
    <title>8C448B53-3B5B-4392-96EA-C72907118E05</title>
    <g id="Page-1" stroke="none" stroke-width="1" fill="none" fill-rule="evenodd">
        <g id="8_(L)커뮤니티_커뮤니티-댓글-상세" transform="translate(-314.000000, -523.000000)">
            <g id="community_reply/alert" transform="translate(18.000000, 515.000000)">
                <g id="Group">
                    <g id="ic_warn_g/r" transform="translate(296.000000, 8.000000)">
                        <path d="M13.5411379,5.49056604 L13.5411379,10.7058001 C13.5411379,13.139944 11.5678744,15.1132075 9.13373051,15.1132075 C6.69958661,15.1132075 4.7263231,13.139944 4.7263231,10.7058001 L4.7263231,5.49056604 L4.7263231,5.49056604" id="Rectangle" stroke="#F84444" fill="#F84444" transform="translate(9.133731, 10.301887) rotate(-180.000000) translate(-9.133731, -10.301887) "></path>
                        <line x1="8.9763231" y1="3.08490566" x2="8.9763231" y2="1.16037736" id="Line" stroke="#F84444" stroke-linecap="round"></line>
                        <line x1="2.78597953" y1="7.08686747" x2="1" y2="6.46030234" id="Line-Copy" stroke="#F84444" stroke-linecap="round"></line>
                        <line x1="5.25960959" y1="4.12032258" x2="4.09669347" y2="2.60377358" id="Line-Copy-2" stroke="#F84444" stroke-linecap="round"></line>
                        <line x1="13.7596096" y1="4.12032258" x2="12.5966935" y2="2.60377358" id="Line-Copy-2" stroke="#F84444" stroke-linecap="round" transform="translate(13.178152, 3.362048) scale(-1, 1) translate(-13.178152, -3.362048) "></line>
                        <line x1="16.9011915" y1="7.08686747" x2="15.115212" y2="6.46030234" id="Line-Copy" stroke="#F84444" stroke-linecap="round" transform="translate(16.008202, 6.773585) scale(-1, 1) translate(-16.008202, -6.773585) "></line>
                        <rect id="Rectangle" stroke="#424242" fill="#424242" x="2.39298977" y="14.9716981" width="13.1666667" height="2.52830189" rx="1.26415094"></rect>
                    </g>
                </g>
            </g>
        </g>
    </g>
</svg>