<?xml version="1.0" encoding="UTF-8"?>
<svg width="30px" height="30px" viewBox="0 0 30 30" version="1.1" xmlns="http://www.w3.org/2000/svg" xmlns:xlink="http://www.w3.org/1999/xlink">
    <title>2CF6FFDC-DEB0-4DD6-A398-3F0D406DF041</title>
    <g id="Page-1" stroke="none" stroke-width="1" fill="none" fill-rule="evenodd">
        <g id="내-프로필-조회_User-Copy" transform="translate(-48.000000, -491.000000)" fill="#3C5AFE">
            <g id="btn_vertical_on" transform="translate(30.000000, 476.000000)">
                <g id="ic_detail_transfer/activated" transform="translate(18.000000, 15.000000)">
                    <g id="Arrows" transform="translate(1.428571, 2.857143)">
                        <path d="M6.61785714,12.8258929 C7.07798287,12.8254881 7.49262213,12.5481325 7.66864987,12.1230089 C7.84467762,11.6978853 7.74747725,11.2085961 7.42232143,10.8830357 L4.43214286,7.89285714 L21.7964286,7.89285714 C22.4251456,7.89285714 22.9348214,7.3831813 22.9348214,6.75446429 C22.9348214,6.12574727 22.4251456,5.61607143 21.7964286,5.61607143 L4.18169643,5.61607143 L7.384375,2.65625 C7.74913254,2.40451318 7.93463353,1.96396612 7.85981086,1.52713542 C7.78498818,1.09030473 7.46344472,0.736606921 7.03570048,0.62061401 C6.60795624,0.504621099 6.15177581,0.647420779 5.86651786,0.986607143 L0.933482143,5.54017857 C0.511631845,6.14698093 0.511631845,6.95212621 0.933482143,7.55892857 L5.86651786,12.4919643 C6.06661855,12.6929876 6.3345559,12.8120708 6.61785714,12.8258929 Z" id="Shape"></path>
                        <path d="M25.9705357,17.5995536 C26.0458645,17.236156 25.9380848,16.8589273 25.6821429,16.5901786 L20.9388393,11.6571429 C20.6601498,11.3499053 20.2364046,11.2185729 19.8328084,11.3143478 C19.4292122,11.4101228 19.1096561,11.7178435 18.9987247,12.1175396 C18.8877933,12.5172357 19.0030476,12.9456334 19.2995536,13.2357143 L22.1910714,16.2714286 L5.1,16.2714286 C4.47128299,16.2714286 3.96160714,16.7811044 3.96160714,17.4098214 C3.96160714,18.0385384 4.47128299,18.5482143 5.1,18.5482143 L22.3352679,18.5482143 L19.1401786,21.4776786 C18.775421,21.7294154 18.58992,22.1699625 18.6647427,22.6067931 C18.7395654,23.0436238 19.0611089,23.3973217 19.4888531,23.5133146 C19.9165973,23.6293075 20.3727778,23.4865078 20.6580357,23.1473214 L25.5910714,18.59375 C25.8776477,18.3479159 26.0204349,17.9738134 25.9705357,17.5995536 L25.9705357,17.5995536 Z" id="Shape"></path>
                    </g>
                </g>
            </g>
        </g>
    </g>
</svg>