<?xml version="1.0" encoding="UTF-8"?>
<svg width="36px" height="36px" viewBox="0 0 36 36" version="1.1" xmlns="http://www.w3.org/2000/svg" xmlns:xlink="http://www.w3.org/1999/xlink">
    <title>0F46B7FF-9170-4E8F-A5C8-796D2D1A166B</title>
    <g id="Page-1" stroke="none" stroke-width="1" fill="none" fill-rule="evenodd">
        <g id="내-프로필-편집_User" transform="translate(-207.000000, -228.000000)">
            <g id="btn_camera" transform="translate(207.000000, 228.000000)">
                <g id="Group-3-Copy">
                    <circle id="Oval" fill="#9E9E9E" cx="18" cy="18" r="18"></circle>
                    <g id="ic_add-calorie-copy" transform="translate(9.000000, 10.000000)">
                        <path d="M12.4584641,0.75 L6.5730822,0.928175894 L5.75685821,3.64596846 L2.56392761,3.646149 C1.88476438,3.646149 1.62795792,3.69034946 1.37685344,3.8246416 C1.18356211,3.92801494 1.03186594,4.07971111 0.928492602,4.27300244 C0.794200459,4.52410691 0.75,4.78091338 0.75,5.4600342 L0.75,14.3276371 C0.75,15.006758 0.794200459,15.2635644 0.928492602,15.5146689 C1.03186594,15.7079602 1.18356211,15.8596564 1.37685344,15.9630297 C1.62795792,16.0973219 1.88476438,16.1415223 2.5638852,16.1415223 L16.4361148,16.1415223 C17.1152356,16.1415223 17.3720421,16.0973219 17.6231466,15.9630297 C17.8164379,15.8596564 17.9681341,15.7079602 18.0715074,15.5146689 C18.2057995,15.2635644 18.25,15.006758 18.25,14.3276371 L18.25,5.4600342 C18.25,4.78091338 18.2057995,4.52410691 18.0715074,4.27300244 C17.9681341,4.07971111 17.8164379,3.92801494 17.6231466,3.8246416 C17.3720421,3.69034946 17.1152356,3.646149 16.4361148,3.646149 L13.4704626,3.64596482 L12.4584641,0.75 Z" id="Combined-Shape" stroke="#FFFFFF" stroke-width="1.5"></path>
                        <circle id="Oval" stroke="#FFFFFF" stroke-width="1.5" cx="9.5" cy="9.5" r="3.75"></circle>
                        <circle id="Oval" fill="#FFFFFF" cx="15.5" cy="6.5" r="1"></circle>
                    </g>
                </g>
            </g>
        </g>
    </g>
</svg>