<?xml version="1.0" encoding="UTF-8"?>
<svg width="30px" height="30px" viewBox="0 0 30 30" version="1.1" xmlns="http://www.w3.org/2000/svg" xmlns:xlink="http://www.w3.org/1999/xlink">
    <title>8CB50DFC-5411-4BDB-B111-A42D680C158D</title>
    <g id="Page-1" stroke="none" stroke-width="1" fill="none" fill-rule="evenodd">
        <g id="내-프로필-조회_User-Copy" transform="translate(-48.000000, -566.000000)" fill="#3C5AFE">
            <g id="btn_vertical_on" transform="translate(30.000000, 551.000000)">
                <g id="ic_detail_joystick/activated" transform="translate(18.000000, 15.000000)">
                    <g id="Joystick" transform="translate(1.428571, 1.428571)">
                        <circle id="Oval" cx="19.2590909" cy="13.5097403" r="1"></circle>
                        <circle id="Oval" cx="19.2590909" cy="17.211039" r="1"></circle>
                        <circle id="Oval" cx="21.1097403" cy="15.3603896" r="1"></circle>
                        <circle id="Oval" cx="17.4084416" cy="15.3603896" r="1"></circle>
                        <path d="M25.0022727,13.6269481 C25.0022727,13.4727273 24.9344156,13.4357143 24.8727273,13.2321429 L24.5396104,11.9983766 L24.2435065,11.9983766 C24.2435065,11.3814935 24.2435065,11.7948052 24.2003247,11.7701299 C23.1430076,10.0459475 21.2869871,8.97177564 19.2652597,8.91396104 C18.3086584,8.90919465 17.361419,9.10242308 16.4831169,9.48149351 C16.4577045,8.60098795 15.8151914,7.8604206 14.9470779,7.71103896 C14.9964286,7.16201299 15.8970779,6.13798701 18.9568182,6.13798701 C20.9308442,6.13798701 22.3188312,5.59512987 23.0961039,4.51558442 C23.7222985,3.53413113 23.8826208,2.32606899 23.5340909,1.21525974 C23.3722607,0.729769169 22.8475036,0.467390589 22.362013,0.629220779 C21.8765224,0.79105097 21.6141438,1.31580813 21.775974,1.8012987 C21.9384566,2.34672271 21.8716285,2.93480997 21.5909091,3.42987013 C21.0850649,4.13311688 19.875974,4.28116883 18.9506494,4.28116883 C13.1581169,4.28116883 13.0902597,7.53831169 13.0902597,7.67402597 C12.2197041,7.82078369 11.5740248,8.56202353 11.5480519,9.44448052 C10.6712055,9.06836051 9.72616996,8.87725333 8.77207792,8.88311688 C5.97750184,8.88008693 3.57130195,10.8546699 3.0288961,13.5961039 L0.524350649,21.9178571 L0.444155844,22.1769481 L0.444155844,22.4483766 C0.474084038,24.8207353 2.38997894,26.7366302 4.76233766,26.7665584 C5.53887269,26.7650642 6.30029162,26.5517816 6.96461039,26.1496753 L7.125,26.2237013 L8.05032468,25.2428571 L12.3685065,20.5915584 L15.5577922,20.5915584 L19.3207792,25.4279221 C20.1511596,26.346002 21.363055,26.8230004 22.5964286,26.7172078 C24.9812945,26.7172078 26.9146104,24.7838919 26.9146104,22.399026 C26.9701299,22.1769481 26.9701299,22.0967532 25.0022727,13.6269481 Z M13.3987013,10.6288961 L13.3987013,9.5 L14.6324675,9.5 L14.6324675,10.6042208 L14.7003247,10.6597403 C14.4849229,10.8722521 14.2888072,11.1034622 14.1142857,11.3506494 L13.9107143,11.3506494 C13.7273045,11.0957384 13.5208045,10.8582634 13.2938312,10.6412338 L13.3987013,10.6288961 Z M22.6519481,24.9405844 C21.9722194,25.0392203 21.2859001,24.8104472 20.8012987,24.3237013 L16.4831169,18.7717532 L11.5480519,18.7717532 L6.69318182,24.0152597 C6.22780963,24.6003554 5.52226713,24.9429179 4.77467532,24.9467532 C3.43085603,24.902029 2.35186714,23.8230401 2.30714286,22.4792208 L4.84253247,14.0587662 C5.17419097,12.144987 6.8298004,10.7440867 8.77207792,10.7337662 C10.5548701,10.7337662 12.2636364,11.5912338 12.7818182,13.2012987 L15.2493506,13.2012987 C15.7675325,11.5912338 17.4762987,10.7337662 19.2590909,10.7337662 C20.6509311,10.7925621 21.9205064,11.5455037 22.6396104,12.7386364 C22.8743279,13.0551747 23.0230941,13.4270903 23.0714286,13.8181818 L23.0714286,13.7133117 C23.1151011,13.8361508 23.150143,13.9618895 23.1762987,14.0896104 C23.1762987,14.0896104 25.100974,22.3496753 25.100974,22.4977273 C25.077579,23.8364459 23.9908349,24.9122404 22.6519481,24.9220779 L22.6519481,24.9405844 Z" id="Shape"></path>
                        <path d="M10.3142857,14.4350649 L9.08051948,14.4350649 L9.08051948,13.2012987 C9.08051948,12.690256 8.66623751,12.275974 8.15519481,12.275974 C7.6441521,12.275974 7.22987013,12.690256 7.22987013,13.2012987 L7.22987013,14.4350649 L5.9961039,14.4350649 C5.48506119,14.4350649 5.07077922,14.8493469 5.07077922,15.3603896 C5.07077922,15.8714323 5.48506119,16.2857143 5.9961039,16.2857143 L7.22987013,16.2857143 L7.22987013,17.5194805 C7.22987013,18.0305232 7.6441521,18.4448052 8.15519481,18.4448052 C8.66623751,18.4448052 9.08051948,18.0305232 9.08051948,17.5194805 L9.08051948,16.2857143 L10.3142857,16.2857143 C10.8253284,16.2857143 11.2396104,15.8714323 11.2396104,15.3603896 C11.2396104,14.8493469 10.8253284,14.4350649 10.3142857,14.4350649 L10.3142857,14.4350649 Z" id="Shape"></path>
                    </g>
                </g>
            </g>
        </g>
    </g>
</svg>