<?xml version="1.0" encoding="UTF-8"?>
<svg width="21px" height="21px" viewBox="0 0 21 21" version="1.1" xmlns="http://www.w3.org/2000/svg" xmlns:xlink="http://www.w3.org/1999/xlink">
    <title>FC4A3F61-676F-421F-B5C2-7F24B1649A53</title>
    <g id="Page-1" stroke="none" stroke-width="1" fill="none" fill-rule="evenodd">
        <g id="선수-프로필-편집_Pro--" transform="translate(-320.000000, -420.000000)" fill="#3C5AFE">
            <g id="input_title" transform="translate(20.000000, 417.000000)">
                <g id="Group-2">
                    <g id="ic_add" transform="translate(300.000000, 3.000000)">
                        <g id="Add-2">
                            <path d="M10.6026667,0.186666667 C4.93254324,0.186666667 0.336,4.7832099 0.336,10.4533333 C0.336,16.1234568 4.93254324,20.72 10.6026667,20.72 C16.2727901,20.72 20.8693333,16.1234568 20.8693333,10.4533333 C20.8693333,4.7832099 16.2727901,0.186666667 10.6026667,0.186666667 L10.6026667,0.186666667 Z M10.6026667,19.32 C5.70574188,19.32 1.736,15.3502581 1.736,10.4533333 C1.736,5.55640855 5.70574188,1.58666667 10.6026667,1.58666667 C15.4995914,1.58666667 19.4693333,5.55640855 19.4693333,10.4533333 C19.4693333,12.8049195 18.5351693,15.0601909 16.8723468,16.7230135 C15.2095242,18.385836 12.9542529,19.32 10.6026667,19.32 Z" id="Shape"></path>
                            <path d="M14.336,9.98666667 L11.536,9.98666667 L11.536,7.18666667 C11.536,6.80006734 11.2225993,6.48666667 10.836,6.48666667 C10.4494007,6.48666667 10.136,6.80006734 10.136,7.18666667 L10.136,9.98666667 L7.336,9.98666667 C6.94940068,9.98666667 6.636,10.3000673 6.636,10.6866667 C6.636,11.073266 6.94940068,11.3866667 7.336,11.3866667 L10.136,11.3866667 L10.136,14.1866667 C10.136,14.573266 10.4494007,14.8866667 10.836,14.8866667 C11.2225993,14.8866667 11.536,14.573266 11.536,14.1866667 L11.536,11.3866667 L14.336,11.3866667 C14.7225993,11.3866667 15.036,11.073266 15.036,10.6866667 C15.036,10.3000673 14.7225993,9.98666667 14.336,9.98666667 L14.336,9.98666667 Z" id="Shape"></path>
                        </g>
                    </g>
                </g>
            </g>
        </g>
    </g>
</svg>