<?xml version="1.0" encoding="UTF-8"?>
<svg width="30px" height="30px" viewBox="0 0 30 30" version="1.1" xmlns="http://www.w3.org/2000/svg" xmlns:xlink="http://www.w3.org/1999/xlink">
    <title>323FD360-4FF4-4EAE-B475-49524581EC84</title>
    <g id="Page-1" stroke="none" stroke-width="1" fill="none" fill-rule="evenodd">
        <g id="내-프로필-조회_User-Copy" transform="translate(-48.000000, -416.000000)" fill="#3C5AFE">
            <g id="btn_vertical_on" transform="translate(30.000000, 401.000000)">
                <g id="ic_detail_player/activated" transform="translate(18.000000, 15.000000)">
                    <g id="User-2-Copy" transform="translate(1.428571, 1.428571)">
                        <path d="M13.704127,0.392063492 C6.37539602,0.392063492 0.434285714,6.3331738 0.434285714,13.6619048 C0.434285714,20.9906357 6.37539602,26.931746 13.704127,26.931746 C21.032858,26.931746 26.9739683,20.9906357 26.9739683,13.6619048 C26.9739683,6.3331738 21.032858,0.392063492 13.704127,0.392063492 Z M2.24380952,13.6619048 C2.24344309,8.64262536 5.50928741,4.2071458 10.3023478,2.71726735 C15.0954082,1.2273889 20.3002534,3.02983306 23.1454107,7.16483555 C25.990568,11.299838 25.8139183,16.8051094 22.7095238,20.7492063 C21.3268823,18.6898312 19.3207755,17.1276469 16.9853968,16.291746 C17.9946733,15.211402 18.547848,13.7830875 18.5295238,12.3047619 C18.5295238,9.28888889 16.364127,6.87619048 13.704127,6.87619048 C11.044127,6.87619048 8.87873016,9.28888889 8.87873016,12.3047619 C8.86373517,13.8358457 9.46341891,15.3089819 10.5434921,16.3942857 C8.19153999,17.2385597 6.20774533,18.8767901 4.93396825,21.0266667 C3.19513432,18.966771 2.2420668,16.3575884 2.24380952,13.6619048 L2.24380952,13.6619048 Z M14.0057143,15.7730159 C13.675273,15.7743733 13.3451134,15.7924918 13.0165079,15.8273016 C11.5485869,15.2949729 10.6026924,13.8638788 10.688254,12.3047619 C10.688254,10.308254 12.0393651,8.68571429 13.704127,8.68571429 C15.3688889,8.68571429 16.72,10.308254 16.72,12.3047619 C16.7943236,13.8200102 15.9046894,15.2173161 14.5003175,15.7911111 C14.3374603,15.7850794 14.1746032,15.7730159 14.0057143,15.7730159 Z M6.27301587,22.4079365 C7.58400304,19.8485079 10.0598624,18.088397 12.9079365,17.6911111 C13.4951171,17.8057796 14.1002119,17.7913726 14.6812698,17.6488889 C17.4960067,18.0289766 19.9811964,19.6783601 21.4247619,22.1244444 C17.1710737,26.0506444 10.6523323,26.1724658 6.25492063,22.4079365 L6.27301587,22.4079365 Z" id="Shape"></path>
                    </g>
                </g>
            </g>
        </g>
    </g>
</svg>