<?xml version="1.0" encoding="UTF-8"?>
<svg width="21px" height="21px" viewBox="0 0 21 21" version="1.1" xmlns="http://www.w3.org/2000/svg" xmlns:xlink="http://www.w3.org/1999/xlink">
    <title>1340AC97-6C70-4436-820D-79243C5CA47E</title>
    <g id="Page-1" stroke="none" stroke-width="1" fill="none" fill-rule="evenodd">
        <g id="게임상세-_--선수상세-_-선수-게임-데이터" transform="translate(-35.000000, -667.000000)" fill="#BDBDBD">
            <g id="btn_player/profile" transform="translate(0.000000, 648.000000)">
                <g id="ic_detail_player" transform="translate(35.000000, 19.000000)">
                    <g id="User-2" transform="translate(1.000000, 1.000000)">
                        <path d="M9.59288889,0.274444444 C4.46277721,0.274444444 0.304,4.43322166 0.304,9.56333333 C0.304,14.693445 4.46277721,18.8522222 9.59288889,18.8522222 C14.7230006,18.8522222 18.8817778,14.693445 18.8817778,9.56333333 C18.8817778,4.43322166 14.7230006,0.274444444 9.59288889,0.274444444 Z M1.57066667,9.56333333 C1.57041017,6.04983775 3.85650118,2.94500206 7.21164347,1.90208715 C10.5667858,0.85917223 14.2101774,2.12088314 16.2017875,5.01538489 C18.1933976,7.90988663 18.0697428,11.7635766 15.8966667,14.5244444 C14.9288176,13.0828818 13.5245428,11.9893528 11.8897778,11.4042222 C12.5962713,10.6479814 12.9834936,9.64816125 12.9706667,8.61333333 C12.9706667,6.50222222 11.4548889,4.81333333 9.59288889,4.81333333 C7.73088889,4.81333333 6.21511111,6.50222222 6.21511111,8.61333333 C6.20461462,9.685092 6.62439323,10.7162873 7.38044444,11.476 C5.73407799,12.0669918 4.34542173,13.2137531 3.45377778,14.7186667 C2.23659403,13.2767397 1.56944676,11.4503119 1.57066667,9.56333333 L1.57066667,9.56333333 Z M9.804,11.0411111 C9.57269113,11.0420613 9.34157936,11.0547443 9.11155556,11.0791111 C8.0840108,10.706481 7.42188471,9.70471513 7.48177778,8.61333333 C7.48177778,7.21577778 8.42755556,6.08 9.59288889,6.08 C10.7582222,6.08 11.704,7.21577778 11.704,8.61333333 C11.7560265,9.67400712 11.1332826,10.6521212 10.1502222,11.0537778 C10.0362222,11.0495556 9.92222222,11.0411111 9.804,11.0411111 Z M4.39111111,15.6855556 C5.30880213,13.8939555 7.04190367,12.6618779 9.03555556,12.3837778 C9.44658198,12.4640457 9.87014833,12.4539608 10.2768889,12.3542222 C12.2472047,12.6202836 13.9868375,13.774852 14.9973333,15.4871111 C12.0197516,18.2354511 7.45663258,18.3207261 4.37844444,15.6855556 L4.39111111,15.6855556 Z" id="Shape"></path>
                    </g>
                </g>
            </g>
        </g>
    </g>
</svg>