<?xml version="1.0" encoding="UTF-8"?>
<svg width="21px" height="21px" viewBox="0 0 21 21" version="1.1" xmlns="http://www.w3.org/2000/svg" xmlns:xlink="http://www.w3.org/1999/xlink">
    <title>2FA9C594-75F0-4EEA-8A0D-3A9F574EB1B5</title>
    <g id="Page-1" stroke="none" stroke-width="1" fill="none" fill-rule="evenodd">
        <g id="게임상세-_--선수상세-_-선수-프로필---" transform="translate(-125.000000, -667.000000)" fill="#BCBCBC">
            <g id="btn_data" transform="translate(90.000000, 648.000000)">
                <g id="ic_detail_data" transform="translate(35.000000, 19.000000)">
                    <g id="Chart-5" transform="translate(1.000000, 2.000000)">
                        <path d="M19.1386047,5.81860465 C19.136811,5.09622855 18.7220705,4.43850211 18.0710095,4.12553252 C17.4199484,3.81256294 16.6472524,3.89948038 16.081991,4.34926914 C15.5167295,4.7990579 15.2584744,5.53248688 15.4172093,6.2372093 L12.6753488,9.19674419 C11.9936185,8.83205334 11.1563803,8.9341964 10.5823256,9.45209302 L8.2172093,7.91581395 C8.40356303,7.13736497 8.07875975,6.32601378 7.40670968,5.89120436 C6.73465961,5.45639494 5.86146242,5.49265226 5.22777233,5.98167927 C4.59408225,6.47070627 4.33765972,7.30619141 4.58790698,8.06651163 L1.5655814,11.3483721 L1.5655814,1.00465116 C1.5655814,0.657867715 1.28445787,0.376744186 0.937674419,0.376744186 C0.590890971,0.376744186 0.309767442,0.657867715 0.309767442,1.00465116 L0.309767442,17.1209302 C0.309767442,17.4677137 0.590890971,17.7488372 0.937674419,17.7488372 L17.0539535,17.7488372 C17.4661488,17.6456677 17.7879933,17.3238232 17.8911628,16.9116279 L17.8911628,7.58511628 C18.638013,7.31841561 19.1371073,6.61164452 19.1386047,5.81860465 Z M16.6269767,16.4930233 L12.4409302,16.4930233 L12.4409302,12.6083721 C12.9267745,12.43995 13.3216444,12.0786014 13.5323939,11.6095648 C13.7431435,11.1405282 13.7511116,10.6053353 13.5544186,10.1302326 L16.2293023,7.39255814 C16.3538097,7.47219016 16.487294,7.5368247 16.6269767,7.58511628 L16.6269767,16.4930233 Z M6.99906977,9.25953488 C7.20659104,9.18508686 7.39932232,9.0745498 7.56837209,8.93302326 L9.96697674,10.4734884 C9.7812336,11.3897343 10.3018223,12.3021062 11.1851163,12.6083721 L11.1851163,16.4930233 L6.99906977,16.4930233 L6.99906977,9.25953488 Z M11.8130233,10.2139535 C12.1598067,10.2139535 12.4409302,10.495077 12.4409302,10.8418605 C12.4409302,11.1886439 12.1598067,11.4697674 11.8130233,11.4697674 C11.4662398,11.4697674 11.1851163,11.1886439 11.1851163,10.8418605 C11.1851163,10.495077 11.4662398,10.2139535 11.8130233,10.2139535 Z M6.37116279,6.86511628 C6.71794624,6.86511628 6.99906977,7.14623981 6.99906977,7.49302326 C6.99906977,7.8398067 6.71794624,8.12093023 6.37116279,8.12093023 C6.02437934,8.12093023 5.74325581,7.8398067 5.74325581,7.49302326 C5.74325581,7.14623981 6.02437934,6.86511628 6.37116279,6.86511628 Z M1.5572093,13.1860465 L1.59906977,13.1525581 L5.36651163,9.07534884 C5.48743695,9.15123476 5.61664974,9.21303219 5.75162791,9.25953488 L5.75162791,16.4930233 L1.5655814,16.4930233 L1.5572093,13.1860465 Z M17.2548837,6.44651163 C16.9081003,6.44651163 16.6269767,6.1653881 16.6269767,5.81860465 C16.6269767,5.4718212 16.9081003,5.19069767 17.2548837,5.19069767 C17.6016672,5.19069767 17.8827907,5.4718212 17.8827907,5.81860465 C17.8827907,6.1653881 17.6016672,6.44651163 17.2548837,6.44651163 Z" id="Shape"></path>
                    </g>
                </g>
            </g>
        </g>
    </g>
</svg>