<?xml version="1.0" encoding="UTF-8"?>
<svg width="21px" height="21px" viewBox="0 0 21 21" version="1.1" xmlns="http://www.w3.org/2000/svg" xmlns:xlink="http://www.w3.org/1999/xlink">
    <title>EC3689A5-8485-4284-92D5-15CF0EA97191</title>
    <g id="Page-1" stroke="none" stroke-width="1" fill="none" fill-rule="evenodd">
        <g id="게임상세-_--선수상세-_-선수-게임-데이터" transform="translate(-305.000000, -667.000000)">
            <g id="btn_salary" transform="translate(270.000000, 648.000000)">
                <g id="ic_detail_salary" transform="translate(35.000000, 19.000000)">
                    <g id="Dollar_bag" transform="translate(2.000000, 1.000000)">
                        <path d="M8.39555556,12.0933333 C8.07960998,12.093513 7.79457707,11.9036081 7.67305953,11.6119659 C7.55154198,11.3203238 7.6174019,10.9842136 7.84,10.76 C8.15029297,10.4659566 8.63637369,10.4659566 8.94666667,10.76 C9.0951169,10.90668 9.1783935,11.1068641 9.17777778,11.3155556 C9.17777778,11.6837454 9.47625461,11.9822222 9.84444444,11.9822222 C10.2126343,11.9822222 10.5111111,11.6837454 10.5111111,11.3155556 C10.5117908,10.3279191 9.82625934,9.47239058 8.86222222,9.25777778 L8.84,8.84444444 C8.84,8.47625461 8.54152317,8.17777778 8.17333333,8.17777778 C7.8051435,8.17777778 7.50666667,8.47625461 7.50666667,8.84444444 L7.50666667,9.40444444 C6.60174537,9.81808756 6.10848166,10.8074315 6.32273463,11.7790687 C6.53698759,12.7507059 7.40059066,13.440851 8.39555556,13.4355556 C8.87167526,13.4379561 9.27118523,13.7951774 9.32661944,14.2680651 C9.38205364,14.7409528 9.07598988,15.1808849 8.61333333,15.2933333 L8.19111111,15.2933333 C7.72240813,15.1936586 7.40424482,14.7566632 7.45333333,14.28 C7.4895262,13.9144535 7.22320327,13.588506 6.85777778,13.5511111 C6.68172142,13.5312654 6.50510347,13.5832802 6.36790588,13.6953807 C6.23070829,13.8074811 6.14453333,13.9701874 6.12888889,14.1466667 C6.02632769,15.1415793 6.58799244,16.0861152 7.51111111,16.4711111 C7.54090626,16.7834702 7.78582519,17.0320411 8.09770908,17.0664559 C8.40959298,17.1008707 8.70281653,16.911681 8.8,16.6133333 C9.96197586,16.4055244 10.772129,15.3437058 10.6656768,14.1681036 C10.5592247,12.9925015 9.57151527,12.0934814 8.39111111,12.0977778 L8.39555556,12.0933333 Z" id="Shape" fill="#BCBCBC"></path>
                        <path d="M16.7511111,16.3733333 C16.5733333,14.3777778 15.7066667,7.96888889 11.8622222,5.56 L11.8622222,5.53333333 L13.1955556,1.97777778 C13.3485068,1.56841475 13.2911481,1.11008511 13.0420326,0.751039638 C12.7929171,0.391994168 12.3836703,0.177814063 11.9466667,0.177777778 L4.83555556,0.177777778 C4.39855192,0.177814063 3.98930509,0.391994168 3.74018959,0.751039638 C3.49107409,1.11008511 3.43371539,1.56841475 3.58666667,1.97777778 L4.92,5.53333333 L4.92,5.56 C1.06666667,7.96888889 0.2,14.3777778 0.0311111111,16.3733333 C-0.0433669632,17.2323692 0.245132544,18.0833622 0.826666667,18.72 C1.41722772,19.3667783 2.25305632,19.7346719 3.12888889,19.7333333 L13.64,19.7333333 C14.5158326,19.7346719 15.3516612,19.3667783 15.9422222,18.72 C16.5285839,18.0855717 16.8220088,17.234317 16.7511111,16.3733333 Z M4.84,1.51111111 L11.9511111,1.51111111 L10.6177778,5.06666667 L6.17333333,5.06666667 L4.84,1.51111111 Z M13.6488889,18.4 L3.14222222,18.4 C2.64668886,18.4013958 2.17306039,18.1959051 1.83554933,17.8330807 C1.49803826,17.4702563 1.32727733,16.9830284 1.36444444,16.4888889 C1.69333333,12.7866667 3.04,7.83555556 6.16888889,6.4 L10.6133333,6.4 C13.7244444,7.84 15.0933333,12.7866667 15.4177778,16.4888889 C15.4548281,16.9814863 15.2852475,17.4672891 14.9496949,17.8298209 C14.6141422,18.1923527 14.1428765,18.3989214 13.6488889,18.4 Z" id="Shape" fill="#BDBDBD"></path>
                    </g>
                </g>
            </g>
        </g>
    </g>
</svg>