<?xml version="1.0" encoding="UTF-8"?>
<svg width="21px" height="21px" viewBox="0 0 21 21" version="1.1" xmlns="http://www.w3.org/2000/svg" xmlns:xlink="http://www.w3.org/1999/xlink">
    <title>A54AEC06-AAFA-4989-A5F6-C6666DB41C9B</title>
    <g id="Page-1" stroke="none" stroke-width="1" fill="none" fill-rule="evenodd">
        <g id="게임상세-_--선수상세-_-선수-게임-데이터" transform="translate(-215.000000, -667.000000)" fill="#BDBDBD">
            <g id="btn_product" transform="translate(180.000000, 648.000000)">
                <g id="ic_detail_joystick" transform="translate(35.000000, 19.000000)">
                    <g id="Joystick" transform="translate(1.000000, 1.000000)">
                        <circle id="Oval" cx="13.4813636" cy="9.45681818" r="1"></circle>
                        <circle id="Oval" cx="13.4813636" cy="12.0477273" r="1"></circle>
                        <circle id="Oval" cx="14.7768182" cy="10.7522727" r="1"></circle>
                        <circle id="Oval" cx="12.1859091" cy="10.7522727" r="1"></circle>
                        <path d="M17.5015909,9.53886364 C17.5015909,9.43090909 17.4540909,9.405 17.4109091,9.2625 L17.1777273,8.39886364 L16.9704545,8.39886364 C16.9704545,7.96704545 16.9704545,8.25636364 16.9402273,8.23909091 C16.2001053,7.03216326 14.900891,6.28024295 13.4856818,6.23977273 C12.8160608,6.23643625 12.1529933,6.37169616 11.5381818,6.63704545 C11.5203932,6.02069157 11.070634,5.50229442 10.4629545,5.39772727 C10.4975,5.01340909 11.1279545,4.29659091 13.2697727,4.29659091 C14.6515909,4.29659091 15.6231818,3.91659091 16.1672727,3.16090909 C16.605609,2.47389179 16.7178346,1.62824829 16.4738636,0.850681818 C16.3605825,0.510838418 15.9932525,0.327173412 15.6534091,0.440454545 C15.3135657,0.553735679 15.1299007,0.921065691 15.2431818,1.26090909 C15.3569196,1.6427059 15.3101399,2.05436698 15.1136364,2.40090909 C14.7595455,2.89318182 13.9131818,2.99681818 13.2654545,2.99681818 C9.21068182,2.99681818 9.16318182,5.27681818 9.16318182,5.37181818 C8.55379288,5.47454858 8.10181737,5.99341647 8.08363636,6.61113636 C7.46984383,6.34785236 6.80831897,6.21407733 6.14045455,6.21818182 C4.18425129,6.21606085 2.49991137,7.5982689 2.12022727,9.51727273 L0.367045455,15.3425 L0.310909091,15.5238636 L0.310909091,15.7138636 C0.331858827,17.3745147 1.67298526,18.7156412 3.33363636,18.7365909 C3.87721088,18.7355449 4.41020413,18.5862471 4.87522727,18.3047727 L4.9875,18.3565909 L5.63522727,17.67 L8.65795455,14.4140909 L10.8904545,14.4140909 L13.5245455,17.7995455 C14.1058117,18.4422014 14.9541385,18.7761003 15.8175,18.7020455 C17.4869062,18.7020455 18.8402273,17.3487244 18.8402273,15.6793182 C18.8790909,15.5238636 18.8790909,15.4677273 17.5015909,9.53886364 Z M9.37909091,7.44022727 L9.37909091,6.65 L10.2427273,6.65 L10.2427273,7.42295455 L10.2902273,7.46181818 C10.139446,7.61057648 10.002165,7.77242355 9.88,7.94545455 L9.7375,7.94545455 C9.60911315,7.76701689 9.46456313,7.60078436 9.30568182,7.44886364 L9.37909091,7.44022727 Z M15.8563636,17.4584091 C15.3805536,17.5274542 14.9001301,17.367313 14.5609091,17.0265909 L11.5381818,13.1402273 L8.08363636,13.1402273 L4.68522727,16.8106818 C4.35946674,17.2202488 3.86558699,17.4600425 3.34227273,17.4627273 C2.40159922,17.4314203 1.646307,16.6761281 1.615,15.7354545 L3.38977273,9.84113636 C3.62193368,8.50149087 4.78086028,7.52086067 6.14045455,7.51363636 C7.38840909,7.51363636 8.58454545,8.11386364 8.94727273,9.24090909 L10.6745455,9.24090909 C11.0372727,8.11386364 12.2334091,7.51363636 13.4813636,7.51363636 C14.4556518,7.55479348 15.3443545,8.08185256 15.8477273,8.91704545 C16.0120295,9.13862228 16.1161659,9.39896319 16.15,9.67272727 L16.15,9.59931818 C16.1805708,9.68530557 16.2051001,9.77332265 16.2234091,9.86272727 C16.2234091,9.86272727 17.5706818,15.6447727 17.5706818,15.7484091 C17.5543053,16.6855121 16.7935844,17.4385683 15.8563636,17.4454545 L15.8563636,17.4584091 Z" id="Shape"></path>
                        <path d="M7.22,10.1045455 L6.35636364,10.1045455 L6.35636364,9.24090909 C6.35636364,8.8831792 6.06636626,8.59318182 5.70863636,8.59318182 C5.35090647,8.59318182 5.06090909,8.8831792 5.06090909,9.24090909 L5.06090909,10.1045455 L4.19727273,10.1045455 C3.83954283,10.1045455 3.54954545,10.3945428 3.54954545,10.7522727 C3.54954545,11.1100026 3.83954283,11.4 4.19727273,11.4 L5.06090909,11.4 L5.06090909,12.2636364 C5.06090909,12.6213663 5.35090647,12.9113636 5.70863636,12.9113636 C6.06636626,12.9113636 6.35636364,12.6213663 6.35636364,12.2636364 L6.35636364,11.4 L7.22,11.4 C7.57772989,11.4 7.86772727,11.1100026 7.86772727,10.7522727 C7.86772727,10.3945428 7.57772989,10.1045455 7.22,10.1045455 L7.22,10.1045455 Z" id="Shape"></path>
                    </g>
                </g>
            </g>
        </g>
    </g>
</svg>