<?xml version="1.0" encoding="UTF-8"?>
<svg width="24px" height="24px" viewBox="0 0 24 24" version="1.1" xmlns="http://www.w3.org/2000/svg" xmlns:xlink="http://www.w3.org/1999/xlink">
    <title>AFEFF4F7-8F97-4D69-9F3E-C786E2EC5DDD</title>
    <g id="Page-1" stroke="none" stroke-width="1" fill="none" fill-rule="evenodd">
        <g id="게임상세-_--선수리스트----copy" transform="translate(-20.000000, -52.000000)" fill="#212121">
            <g id="top-menu/game" transform="translate(20.000000, 52.000000)">
                <g id="Group-4">
                    <g id="ic_main_menu">
                        <path d="M2.14269896,6.25882353 L22.0734948,6.25882353 C22.6238685,6.25882353 23.0700346,5.81265747 23.0700346,5.26228374 C23.0700346,4.71191001 22.6238685,4.26574394 22.0734948,4.26574394 L2.14269896,4.26574394 C1.59232523,4.26574394 1.14615917,4.71191001 1.14615917,5.26228374 C1.14615917,5.81265747 1.59232523,6.25882353 2.14269896,6.25882353 L2.14269896,6.25882353 Z" id="Shape"></path>
                        <path d="M22.0734948,10.9093426 L2.14269896,10.9093426 C1.59232523,10.9093426 1.14615917,11.3555086 1.14615917,11.9058824 C1.14615917,12.4562561 1.59232523,12.9024221 2.14269896,12.9024221 L22.0734948,12.9024221 C22.6238685,12.9024221 23.0700346,12.4562561 23.0700346,11.9058824 C23.0700346,11.3555086 22.6238685,10.9093426 22.0734948,10.9093426 L22.0734948,10.9093426 Z" id="Shape"></path>
                        <path d="M22.0734948,17.5529412 L2.14269896,17.5529412 C1.59232523,17.5529412 1.14615917,17.9991072 1.14615917,18.549481 C1.14615917,19.0998547 1.59232523,19.5460208 2.14269896,19.5460208 L22.0734948,19.5460208 C22.6238685,19.5460208 23.0700346,19.0998547 23.0700346,18.549481 C23.0700346,17.9991072 22.6238685,17.5529412 22.0734948,17.5529412 L22.0734948,17.5529412 Z" id="Shape"></path>
                    </g>
                </g>
            </g>
        </g>
    </g>
</svg>