<?xml version="1.0" encoding="UTF-8"?>
<svg width="15px" height="16px" viewBox="0 0 15 16" version="1.1" xmlns="http://www.w3.org/2000/svg" xmlns:xlink="http://www.w3.org/1999/xlink">
    <title>FB2F9D5B-B47A-4252-B2B3-1C971372AF9D</title>
    <defs>
        <polygon id="path-1" points="0 0.000168421053 15 0.000168421053 15 15.2768 0 15.2768"></polygon>
    </defs>
    <g id="Page-1" stroke="none" stroke-width="1" fill="none" fill-rule="evenodd">
        <g id="게임상세-_--선수리스트----copy" transform="translate(-325.000000, -149.000000)">
            <g id="search-on" transform="translate(0.000000, 136.000000)">
                <g id="ic_search_bk_bk" transform="translate(325.000000, 13.000000)">
                    <g id="Group-3">
                        <mask id="mask-2" fill="white">
                            <use xlink:href="#path-1"></use>
                        </mask>
                        <g id="Clip-2"></g>
                        <path d="M5.87041667,1.56143158 C8.25625,1.56143158 10.1970833,3.52269474 10.1970833,5.9328 C10.1970833,8.34206316 8.25625,10.3033263 5.87041667,10.3033263 C3.48541667,10.3033263 1.54458333,8.34206316 1.54458333,5.9328 C1.54458333,3.52269474 3.48541667,1.56143158 5.87041667,1.56143158 Z M10.4845833,9.58922105 C11.26875,8.58122105 11.74125,7.31301053 11.74125,5.9328 C11.74125,2.66037895 9.10791667,0.000168421053 5.87041667,0.000168421053 C2.63375,0.000168421053 -0.000416666667,2.66037895 -0.000416666667,5.9328 C-0.000416666667,9.20437895 2.63375,11.8654316 5.87041667,11.8654316 C6.62702087,11.8654316 7.34867821,11.7186113 8.01167009,11.4529336 C8.50243773,11.2562706 8.96106005,10.9944805 9.37791667,10.6789053 L13.6804167,15.0460632 C13.8304167,15.2001684 14.02875,15.2768 14.2279167,15.2768 C14.4245833,15.2768 14.6220833,15.2018526 14.7720833,15.0494316 C15.0745833,14.7454316 15.07625,14.2511158 14.7754167,13.9462737 L10.4845833,9.58922105 Z" id="Fill-1" fill="#212121" mask="url(#mask-2)"></path>
                    </g>
                </g>
            </g>
        </g>
    </g>
</svg>