<?xml version="1.0" encoding="UTF-8"?>
<svg width="14px" height="14px" viewBox="0 0 14 14" version="1.1" xmlns="http://www.w3.org/2000/svg" xmlns:xlink="http://www.w3.org/1999/xlink">
    <title>1FFC427C-7E56-49FB-8B54-F9607AFC67E9</title>
    <g id="Page-1" stroke="none" stroke-width="1" fill="none" fill-rule="evenodd">
        <g id="Web-Main" transform="translate(-160.000000, -369.000000)" fill="#FFFFFF">
            <g id="main_img_banner" transform="translate(20.000000, 96.000000)">
                <g id="Group-3" transform="translate(140.000000, 271.000000)">
                    <g id="ic_detail_player-_w" transform="translate(0.000000, 2.000000)">
                        <g id="User-2">
                            <path d="M7,0 C3.13400675,0 0,3.13400675 0,7 C0,10.8659932 3.13400675,14 7,14 C10.8659932,14 14,10.8659932 14,7 C14,3.13400675 10.8659932,0 7,0 Z M0.954545455,7 C0.954352158,4.35227008 2.6771241,2.01250155 5.2055208,1.22657285 C7.73391749,0.440644145 10.4795356,1.391455 11.9803901,3.57271827 C13.4812446,5.75398155 13.3880598,8.65807805 11.7504545,10.7386364 C11.0210946,9.65229134 9.96284926,8.82822042 8.73090909,8.38727273 C9.26331451,7.8173783 9.5551208,7.06392535 9.54545455,6.28409091 C9.54545455,4.69318182 8.40318182,3.42045455 7,3.42045455 C5.59681818,3.42045455 4.45454545,4.69318182 4.45454545,6.28409091 C4.44663542,7.09175593 4.76297576,7.86885287 5.33272727,8.44136364 C4.09204442,8.88672827 3.04556901,9.75091441 2.37363636,10.885 C1.45638067,9.79838041 0.953626149,8.42200538 0.954545455,7 L0.954545455,7 Z M7.15909091,8.11363636 C6.9847792,8.11435242 6.81061603,8.12391015 6.63727273,8.14227273 C5.8629268,7.86146297 5.36395618,7.1065437 5.40909091,6.28409091 C5.40909091,5.23090909 6.12181818,4.375 7,4.375 C7.87818182,4.375 8.59090909,5.23090909 8.59090909,6.28409091 C8.63011567,7.08340249 8.16082299,7.82049806 7.42,8.12318182 C7.33409091,8.12 7.24818182,8.11363636 7.15909091,8.11363636 Z M3.08,11.6136364 C3.77156141,10.2635072 5.07760684,9.33502759 6.58,9.12545455 C6.88974479,9.18594355 7.20893953,9.17834367 7.51545455,9.10318182 C9.00026191,9.30368262 10.3112292,10.1737521 11.0727273,11.4640909 C8.82885584,13.5352084 5.39014178,13.5994706 3.07045455,11.6136364 L3.08,11.6136364 Z" id="Shape"></path>
                        </g>
                    </g>
                </g>
            </g>
        </g>
    </g>
</svg>