<?xml version="1.0" encoding="UTF-8"?>
<svg width="24px" height="24px" viewBox="0 0 24 24" version="1.1" xmlns="http://www.w3.org/2000/svg" xmlns:xlink="http://www.w3.org/1999/xlink">
    <title>73528756-872F-43AA-B021-938B6EE96606</title>
    <g id="Page-1" stroke="none" stroke-width="1" fill="none" fill-rule="evenodd">
        <g id="메뉴-전체보기-_-로그인-시-화면" transform="translate(-278.000000, -55.000000)" fill="#212121">
            <g id="menu_profile_login" transform="translate(0.000000, 42.000000)">
                <g id="btn_close" transform="translate(278.000000, 13.000000)">
                    <path d="M13.3924967,12.518743 L20.0540523,5.72590519 C20.34065,5.41325707 20.3278652,4.92970509 20.0251471,4.63263874 C19.722429,4.33557239 19.2387325,4.33191243 18.9315539,4.62436392 L12.280489,11.4067109 L5.35666751,4.61387305 C5.15844512,4.40565955 4.86244733,4.322132 4.58462495,4.39601053 C4.30680257,4.46988906 4.09138825,4.68941134 4.02276595,4.96858419 C3.95414366,5.24775703 4.04323887,5.5421328 4.25515045,5.73639605 L11.1684813,12.518743 L4.25515045,19.3010899 C3.96270539,19.6082753 3.96636527,20.0919824 4.26342509,20.3947072 C4.56048492,20.6974319 5.04402627,20.710217 5.35666751,20.4236129 L12.280489,13.6307751 L18.9315539,20.4131221 C19.2387325,20.7055736 19.722429,20.7019136 20.0251471,20.4048473 C20.3278652,20.1077809 20.34065,19.6242289 20.0540523,19.3115808 L13.3924967,12.518743 Z" id="Shape"></path>
                </g>
            </g>
        </g>
    </g>
</svg>