<?xml version="1.0" encoding="UTF-8"?>
<svg width="87px" height="87px" viewBox="0 0 87 87" version="1.1" xmlns="http://www.w3.org/2000/svg" xmlns:xlink="http://www.w3.org/1999/xlink">
    <title>5A933403-D55C-41D7-9A34-FA9331991AFB</title>
    <g id="Page-1" stroke="none" stroke-width="1" fill="none" fill-rule="evenodd">
        <g id="메뉴-전체보기-_-로그인-시-화면" transform="translate(-20.000000, -103.000000)">
            <g id="menu_profile_login" transform="translate(0.000000, 42.000000)">
                <g id="ic_profile" transform="translate(20.000000, 61.000000)">
                    <g id="Group-3">
                        <circle id="Oval" fill="#E0E0E0" cx="43.5" cy="43.5" r="43.5"></circle>
                        <g id="User" transform="translate(26.000000, 27.000000)" fill="#FFFFFF">
                            <path d="M17.5,20 C22.1835,20 26,15.5166667 26,10 C26,4.48333333 22.1835,0 17.5,0 C12.8165,0 9,4.48333333 9,10 C9,15.5166667 12.825,20 17.5,20 Z M17.5,2.5 C20.7895,2.5 23.45,5.83333333 23.45,10 C23.45,14.1666667 20.7895,17.5 17.5,17.5 C14.2105,17.5 11.55,14.1666667 11.55,10 C11.55,5.83333333 14.2105,2.5 17.5,2.5 Z" id="Shape"></path>
                            <path d="M25.3109756,20.0065826 C24.6037818,19.9347741 23.9731585,20.458685 23.9024391,21.1767703 C23.8317198,21.8948556 24.3476842,22.5351911 25.054878,22.6069997 C29.0261161,23.0808318 32.1027991,26.3578251 32.3792683,30.408251 L2.62073171,30.408251 C2.92333486,26.3695813 5.9866967,23.1067766 9.94512195,22.6069997 C10.6523158,22.5351912 11.1682804,21.8948556 11.097561,21.1767703 C11.0268416,20.4586849 10.3962183,19.9347741 9.68902439,20.0065826 C9.59512195,20.0065826 0,21.1160939 0,31.6997915 C0,32.4178768 0.573293918,33 1.2804878,33 L33.7195122,33 C34.4267061,33 35,32.4178768 35,31.6997915 C35,21.1160939 25.404878,20.0065826 25.3109756,20.0065826 Z" id="Shape"></path>
                        </g>
                    </g>
                </g>
            </g>
        </g>
    </g>
</svg>