<?xml version="1.0" encoding="UTF-8"?>
<svg width="24px" height="17px" viewBox="0 0 24 17" version="1.1" xmlns="http://www.w3.org/2000/svg" xmlns:xlink="http://www.w3.org/1999/xlink">
    <title>4D31F0E1-A4CF-4141-95A3-688322AE28B0</title>
    <g id="Page-1" stroke="none" stroke-width="1" fill="none" fill-rule="evenodd">
        <g id="게임상세-_--선수리스트---" transform="translate(-20.000000, -55.000000)" fill="#FFFFFF">
            <g id="button_menu_w" transform="translate(20.000000, 55.000000)">
                <g id="Menu-2" transform="translate(0.000000, 0.000000)">
                    <path d="M1.21411765,2.4 L22.3905882,2.4 C22.9753603,2.4 23.4494118,1.92594856 23.4494118,1.34117647 C23.4494118,0.756404383 22.9753603,0.282352941 22.3905882,0.282352941 L1.21411765,0.282352941 C0.629345559,0.282352941 0.155294118,0.756404383 0.155294118,1.34117647 C0.155294118,1.92594856 0.629345559,2.4 1.21411765,2.4 L1.21411765,2.4 Z" id="Shape"></path>
                    <path d="M22.3905882,7.34117647 L1.21411765,7.34117647 C0.629345559,7.34117647 0.155294118,7.81522791 0.155294118,8.4 C0.155294118,8.98477209 0.629345559,9.45882353 1.21411765,9.45882353 L22.3905882,9.45882353 C22.9753603,9.45882353 23.4494118,8.98477209 23.4494118,8.4 C23.4494118,7.81522791 22.9753603,7.34117647 22.3905882,7.34117647 L22.3905882,7.34117647 Z" id="Shape"></path>
                    <path d="M22.3905882,14.4 L1.21411765,14.4 C0.629345559,14.4 0.155294118,14.8740514 0.155294118,15.4588235 C0.155294118,16.0435956 0.629345559,16.5176471 1.21411765,16.5176471 L22.3905882,16.5176471 C22.9753603,16.5176471 23.4494118,16.0435956 23.4494118,15.4588235 C23.4494118,14.8740514 22.9753603,14.4 22.3905882,14.4 L22.3905882,14.4 Z" id="Shape"></path>
                </g>
            </g>
        </g>
    </g>
</svg>